{
  "accessors": [
    {
      "bufferView": 2,
      "componentType": 5126,
      "count": 174,
      "max": [
        0.0729999989271164,
        0.0729999989271164,
        0.8625950217247009
      ],
      "min": [
        -0.0729999989271164,
        -0.0729999989271164,
        -0.010834000073373318
      ],
      "type": "VEC3"
    },
    {
      "bufferView": 2,
      "byteOffset": 2088,
      "componentType": 5126,
      "count": 174,
      "max": [
        1.0,
        1.0,
        1.0
      ],
      "min": [
        -1.0,
        -1.0,
        -1.0
      ],
      "type": "VEC3"
    },
    {
      "bufferView": 3,
      "componentType": 5126,
      "count": 174,
      "max": [
        1.0,
        1.0,
        0.9921959042549133,
        1.0
      ],
      "min": [
        -1.0,
        -1.0,
        -1.0,
        -1.0
      ],
      "type": "VEC4"
    },
    {
      "bufferView": 1,
      "componentType": 5126,
      "count": 174,
      "max": [
        0.2304210066795349,
        0.9932810068130493
      ],
      "min": [
        0.008744999766349792,
        0.0024800000246614218
      ],
      "type": "VEC2"
    },
    {
      "bufferView": 0,
      "componentType": 5125,
      "count": 420,
      "type": "SCALAR"
    },
    {
      "bufferView": 2,
      "byteOffset": 4176,
      "componentType": 5126,
      "count": 3133,
      "max": [
        1.0086150169372559,
        1.0671329498291016,
        1.1135979890823364
      ],
      "min": [
        -1.0086150169372559,
        -1.0086150169372559,
        -0.5216990113258362
      ],
      "type": "VEC3"
    },
    {
      "bufferView": 2,
      "byteOffset": 41772,
      "componentType": 5126,
      "count": 3133,
      "max": [
        1.0,
        1.0,
        1.0
      ],
      "min": [
        -1.0,
        -1.0,
        -1.0
      ],
      "type": "VEC3"
    },
    {
      "bufferView": 3,
      "byteOffset": 2784,
      "componentType": 5126,
      "count": 3133,
      "max": [
        1.0,
        0.9999067783355713,
        1.0,
        1.0
      ],
      "min": [
        -1.0,
        -0.9996119737625122,
        -1.0,
        -1.0
      ],
      "type": "VEC4"
    },
    {
      "bufferView": 1,
      "byteOffset": 1392,
      "componentType": 5126,
      "count": 3133,
      "max": [
        0.9909330010414124,
        0.9966769814491272
      ],
      "min": [
        0.0024800000246614218,
        0.0024800000246614218
      ],
      "type": "VEC2"
    },
    {
      "bufferView": 0,
      "byteOffset": 1680,
      "componentType": 5125,
      "count": 9102,
      "type": "SCALAR"
    }
  ],
  "asset": {
    "extras": {
      "author": "TomasKiniulis (https://sketchfab.com/TomasKiniulis)",
      "license": "CC-BY-4.0 (http://creativecommons.org/licenses/by/4.0/)",
      "source": "https://sketchfab.com/3d-models/rusty-house-satellite-dish-929f056abe02416da19d7b1aa805d235",
      "title": "Rusty House Satellite Dish"
    },
    "generator": "Sketchfab-12.67.0",
    "version": "2.0"
  },
  "bufferViews": [
    {
      "buffer": 0,
      "byteLength": 38088,
      "name": "floatBufferViews",
      "target": 34963
    },
    {
      "buffer": 0,
      "byteLength": 26456,
      "byteOffset": 38088,
      "byteStride": 8,
      "name": "floatBufferViews",
      "target": 34962
    },
    {
      "buffer": 0,
      "byteLength": 79368,
      "byteOffset": 64544,
      "byteStride": 12,
      "name": "floatBufferViews",
      "target": 34962
    },
    {
      "buffer": 0,
      "byteLength": 52912,
      "byteOffset": 143912,
      "byteStride": 16,
      "name": "floatBufferViews",
      "target": 34962
    }
  ],
  "buffers": [
    {
      "byteLength": 196824,
      "uri": "scene.bin"
    }
  ],
  "images": [
    {
      "uri": "textures/Checker_baseColor.jpeg"
    },
    {
      "uri": "textures/Checker_metallicRoughness.png"
    },
    {
      "uri": "textures/Checker_normal.png"
    }
  ],
  "materials": [
    {
      "doubleSided": true,
      "name": "Checker",
      "normalTexture": {
        "index": 2
      },
      "occlusionTexture": {
        "index": 1
      },
      "pbrMetallicRoughness": {
        "baseColorTexture": {
          "index": 0
        },
        "metallicRoughnessTexture": {
          "index": 1
        }
      }
    }
  ],
  "meshes": [
    {
      "name": "defaultMaterial",
      "primitives": [
        {
          "attributes": {
            "NORMAL": 1,
            "POSITION": 0,
            "TANGENT": 2,
            "TEXCOORD_0": 3
          },
          "indices": 4,
          "material": 0,
          "mode": 4
        }
      ]
    },
    {
      "name": "defaultMaterial",
      "primitives": [
        {
          "attributes": {
            "NORMAL": 6,
            "POSITION": 5,
            "TANGENT": 7,
            "TEXCOORD_0": 8
          },
          "indices": 9,
          "material": 0,
          "mode": 4
        }
      ]
    }
  ],
  "nodes": [
    {
      "children": [
        1
      ],
      "matrix": [
        1.0,
        0.0,
        0.0,
        0.0,
        0.0,
        2.220446049250313e-16,
        -1.0,
        0.0,
        0.0,
        1.0,
        2.220446049250313e-16,
        0.0,
        0.0,
        0.0,
        0.0,
        1.0
      ],
      "name": "Sketchfab_model"
    },
    {
      "children": [
        2,
        4
      ],
      "matrix": [
        1.0,
        0.0,
        0.0,
        0.0,
        0.0,
        -4.371139006309477e-08,
        0.999999999999999,
        0.0,
        0.0,
        -0.999999999999999,
        -4.371139006309477e-08,
        0.0,
        0.0,
        0.0,
        0.0,
        1.0
      ],
      "name": "Collada visual scene group"
    },
    {
      "children": [
        3
      ],
      "matrix": [
        100.0,
        0.0,
        0.0,
        0.0,
        0.0,
        -100.0,
        1.5e-05,
        0.0,
        0.0,
        -1.5e-05,
        -100.0,
        0.0,
        0.0,
        64.12178,
        -1.084259,
        1.0
      ],
      "name": "Support"
    },
    {
      "mesh": 0,
      "name": "defaultMaterial"
    },
    {
      "children": [
        5
      ],
      "matrix": [
        81.630219,
        0.0,
        -57.762512,
        0.0,
        -35.74892,
        -78.547386,
        -50.520523,
        0.0,
        -45.370941,
        61.889484,
        -64.118401,
        0.0,
        0.0,
        64.12178,
        -85.38166,
        1.0
      ],
      "name": "DIsh"
    },
    {
      "mesh": 1,
      "name": "defaultMaterial"
    }
  ],
  "samplers": [
    {
      "magFilter": 9729,
      "minFilter": 9987,
      "wrapS": 10497,
      "wrapT": 10497
    }
  ],
  "scene": 0,
  "scenes": [
    {
      "name": "Sketchfab_Scene",
      "nodes": [
        0
      ]
    }
  ],
  "textures": [
    {
      "sampler": 0,
      "source": 0
    },
    {
      "sampler": 0,
      "source": 1
    },
    {
      "sampler": 0,
      "source": 2
    }
  ]
}
