{
  "accessors": [
    {
      "bufferView": 2,
      "componentType": 5126,
      "count": 65532,
      "max": [
        111.97911071777344,
        581.9525756835938,
        329.70452880859375
      ],
      "min": [
        -484.0711975097656,
        -127.67543029785156,
        175.23275756835938
      ],
      "type": "VEC3"
    },
    {
      "bufferView": 2,
      "byteOffset": 786384,
      "componentType": 5126,
      "count": 65532,
      "max": [
        0.9998990893363953,
        0.9999467730522156,
        0.9999979734420776
      ],
      "min": [
        -0.9994910359382629,
        -0.9999796748161316,
        -0.9972283244132996
      ],
      "type": "VEC3"
    },
    {
      "bufferView": 3,
      "componentType": 5126,
      "count": 65532,
      "max": [
        0.9999867677688599,
        0.9999715685844421,
        0.9999552965164185,
        1.0
      ],
      "min": [
        -0.9999938011169434,
        -0.9999999403953552,
        -0.9999455809593201,
        -1.0
      ],
      "type": "VEC4"
    },
    {
      "bufferView": 3,
      "byteOffset": 1048512,
      "componentType": 5126,
      "count": 65532,
      "max": [
        0.9607843160629272,
        0.95686274766922,
        0.929411768913269,
        1.0
      ],
      "min": [
        0.027450980618596077,
        0.0470588244497776,
        0.0470588244497776,
        1.0
      ],
      "type": "VEC4"
    },
    {
      "bufferView": 1,
      "componentType": 5126,
      "count": 65532,
      "max": [
        0.9990614652633667,
        0.9966328144073486
      ],
      "min": [
        0.0011447984725236893,
        0.0009664955432526767
      ],
      "type": "VEC2"
    },
    {
      "bufferView": 1,
      "byteOffset": 524256,
      "componentType": 5126,
      "count": 65532,
      "max": [
        0.9990614652633667,
        0.9966328144073486
      ],
      "min": [
        0.0011447984725236893,
        0.0009664955432526767
      ],
      "type": "VEC2"
    },
    {
      "bufferView": 0,
      "componentType": 5125,
      "count": 337467,
      "type": "SCALAR"
    },
    {
      "bufferView": 2,
      "byteOffset": 1572768,
      "componentType": 5126,
      "count": 65532,
      "max": [
        -221.30882263183594,
        529.1580810546875,
        366.4819641113281
      ],
      "min": [
        -649.2786865234375,
        -145.84432983398438,
        174.8837127685547
      ],
      "type": "VEC3"
    },
    {
      "bufferView": 2,
      "byteOffset": 2359152,
      "componentType": 5126,
      "count": 65532,
      "max": [
        0.9994843006134033,
        0.9999560713768005,
        1.0
      ],
      "min": [
        -0.9998946189880371,
        -0.9997057318687439,
        -0.9937881827354431
      ],
      "type": "VEC3"
    },
    {
      "bufferView": 3,
      "byteOffset": 2097024,
      "componentType": 5126,
      "count": 65532,
      "max": [
        0.9999961853027344,
        0.999977171421051,
        0.9997578263282776,
        1.0
      ],
      "min": [
        -0.9999945163726807,
        -0.9999765157699585,
        -0.9999045729637146,
        -1.0
      ],
      "type": "VEC4"
    },
    {
      "bufferView": 3,
      "byteOffset": 3145536,
      "componentType": 5126,
      "count": 65532,
      "max": [
        0.95686274766922,
        0.95686274766922,
        0.9450980424880981,
        1.0
      ],
      "min": [
        0.03529411926865578,
        0.062745101749897,
        0.07450980693101883,
        1.0
      ],
      "type": "VEC4"
    },
    {
      "bufferView": 1,
      "byteOffset": 1048512,
      "componentType": 5126,
      "count": 65532,
      "max": [
        0.9991393685340881,
        0.9982560873031616
      ],
      "min": [
        0.0009889339562505484,
        0.0009665950201451778
      ],
      "type": "VEC2"
    },
    {
      "bufferView": 1,
      "byteOffset": 1572768,
      "componentType": 5126,
      "count": 65532,
      "max": [
        0.9991393685340881,
        0.9982560873031616
      ],
      "min": [
        0.0009889339562505484,
        0.0009665950201451778
      ],
      "type": "VEC2"
    },
    {
      "bufferView": 0,
      "byteOffset": 1349868,
      "componentType": 5125,
      "count": 333252,
      "type": "SCALAR"
    },
    {
      "bufferView": 2,
      "byteOffset": 3145536,
      "componentType": 5126,
      "count": 65532,
      "max": [
        -266.2424011230469,
        371.0398254394531,
        356.6817932128906
      ],
      "min": [
        -637.6197509765625,
        -152.8486785888672,
        174.88829040527344
      ],
      "type": "VEC3"
    },
    {
      "bufferView": 2,
      "byteOffset": 3931920,
      "componentType": 5126,
      "count": 65532,
      "max": [
        0.9999934434890747,
        0.9998549818992615,
        0.9999984502792358
      ],
      "min": [
        -0.9998745322227478,
        -0.9998795986175537,
        -0.991594672203064
      ],
      "type": "VEC3"
    },
    {
      "bufferView": 3,
      "byteOffset": 4194048,
      "componentType": 5126,
      "count": 65532,
      "max": [
        0.9999990463256836,
        0.9999963641166687,
        0.9999693036079407,
        1.0
      ],
      "min": [
        -0.9999891519546509,
        -0.9999832510948181,
        -0.9998637437820435,
        -1.0
      ],
      "type": "VEC4"
    },
    {
      "bufferView": 3,
      "byteOffset": 5242560,
      "componentType": 5126,
      "count": 65532,
      "max": [
        0.9529411792755127,
        0.9607843160629272,
        0.9607843160629272,
        1.0
      ],
      "min": [
        0.03529411926865578,
        0.062745101749897,
        0.0784313753247261,
        1.0
      ],
      "type": "VEC4"
    },
    {
      "bufferView": 1,
      "byteOffset": 2097024,
      "componentType": 5126,
      "count": 65532,
      "max": [
        0.9995468854904175,
        0.9983856081962585
      ],
      "min": [
        0.0009947419166564941,
        0.0009652799926698208
      ],
      "type": "VEC2"
    },
    {
      "bufferView": 1,
      "byteOffset": 2621280,
      "componentType": 5126,
      "count": 65532,
      "max": [
        0.9995468854904175,
        0.9983856081962585
      ],
      "min": [
        0.0009947419166564941,
        0.0009652799926698208
      ],
      "type": "VEC2"
    },
    {
      "bufferView": 0,
      "byteOffset": 2682876,
      "componentType": 5125,
      "count": 312972,
      "type": "SCALAR"
    },
    {
      "bufferView": 2,
      "byteOffset": 4718304,
      "componentType": 5126,
      "count": 65532,
      "max": [
        158.4292449951172,
        442.0758056640625,
        372.7807312011719
      ],
      "min": [
        -590.0106811523438,
        -104.61601257324219,
        175.03721618652344
      ],
      "type": "VEC3"
    },
    {
      "bufferView": 2,
      "byteOffset": 5504688,
      "componentType": 5126,
      "count": 65532,
      "max": [
        0.9998701810836792,
        0.9997423887252808,
        0.9999999403953552
      ],
      "min": [
        -0.9999839067459106,
        -0.999961256980896,
        -0.9864925742149353
      ],
      "type": "VEC3"
    },
    {
      "bufferView": 3,
      "byteOffset": 6291072,
      "componentType": 5126,
      "count": 65532,
      "max": [
        0.9999905228614807,
        0.9999886751174927,
        0.9999893307685852,
        1.0
      ],
      "min": [
        -0.9999803304672241,
        -0.9999736547470093,
        -0.999958872795105,
        -1.0
      ],
      "type": "VEC4"
    },
    {
      "bufferView": 3,
      "byteOffset": 7339584,
      "componentType": 5126,
      "count": 65532,
      "max": [
        0.95686274766922,
        0.9411764740943909,
        0.9098039269447327,
        1.0
      ],
      "min": [
        0.03921568766236305,
        0.054901961237192154,
        0.062745101749897,
        1.0
      ],
      "type": "VEC4"
    },
    {
      "bufferView": 1,
      "byteOffset": 3145536,
      "componentType": 5126,
      "count": 65532,
      "max": [
        0.9993540644645691,
        0.9985194206237793
      ],
      "min": [
        0.0010519202332943678,
        0.0009672263404354453
      ],
      "type": "VEC2"
    },
    {
      "bufferView": 1,
      "byteOffset": 3669792,
      "componentType": 5126,
      "count": 65532,
      "max": [
        0.9993540644645691,
        0.9985194206237793
      ],
      "min": [
        0.0010519202332943678,
        0.0009672263404354453
      ],
      "type": "VEC2"
    },
    {
      "bufferView": 0,
      "byteOffset": 3934764,
      "componentType": 5125,
      "count": 340539,
      "type": "SCALAR"
    },
    {
      "bufferView": 2,
      "byteOffset": 6291072,
      "componentType": 5126,
      "count": 52417,
      "max": [
        158.2884063720703,
        582.6370239257813,
        367.3460998535156
      ],
      "min": [
        -640.612548828125,
        -150.9385223388672,
        175.33653259277344
      ],
      "type": "VEC3"
    },
    {
      "bufferView": 2,
      "byteOffset": 6920076,
      "componentType": 5126,
      "count": 52417,
      "max": [
        0.9998313188552856,
        0.9998235702514648,
        0.9999958276748657
      ],
      "min": [
        -0.9997875094413757,
        -0.9999088048934937,
        -0.9908357858657837
      ],
      "type": "VEC3"
    },
    {
      "bufferView": 3,
      "byteOffset": 8388096,
      "componentType": 5126,
      "count": 52417,
      "max": [
        0.9999121427536011,
        0.9999910593032837,
        0.9999951720237732,
        1.0
      ],
      "min": [
        -0.9999938011169434,
        -0.9999966025352478,
        -0.9990935921669006,
        -1.0
      ],
      "type": "VEC4"
    },
    {
      "bufferView": 3,
      "byteOffset": 9226768,
      "componentType": 5126,
      "count": 52417,
      "max": [
        0.9647058844566345,
        0.95686274766922,
        0.9176470637321472,
        1.0
      ],
      "min": [
        0.0313725508749485,
        0.054901961237192154,
        0.07058823853731155,
        1.0
      ],
      "type": "VEC4"
    },
    {
      "bufferView": 1,
      "byteOffset": 4194048,
      "componentType": 5126,
      "count": 52417,
      "max": [
        0.9989497661590576,
        0.9988735914230347
      ],
      "min": [
        0.0009968429803848267,
        0.0009660894866101444
      ],
      "type": "VEC2"
    },
    {
      "bufferView": 1,
      "byteOffset": 4613384,
      "componentType": 5126,
      "count": 52417,
      "max": [
        0.9989497661590576,
        0.9988735914230347
      ],
      "min": [
        0.0009968429803848267,
        0.0009660894866101444
      ],
      "type": "VEC2"
    },
    {
      "bufferView": 0,
      "byteOffset": 5296920,
      "componentType": 5125,
      "count": 242028,
      "type": "SCALAR"
    }
  ],
  "asset": {
    "extras": {
      "author": "Adriano Oliveira (https://sketchfab.com/adriano_ufc)",
      "license": "CC-BY-4.0 (http://creativecommons.org/licenses/by/4.0/)",
      "source": "https://sketchfab.com/3d-models/serrote-de-muxio-inselberg-abd3ed1b3c4a49bb8511acc8fdb3fa21",
      "title": "Serrote de Muxió (inselberg)"
    },
    "generator": "Sketchfab-15.60.0",
    "version": "2.0"
  },
  "bufferViews": [
    {
      "buffer": 0,
      "byteLength": 6265032,
      "name": "floatBufferViews",
      "target": 34963
    },
    {
      "buffer": 0,
      "byteLength": 5032720,
      "byteOffset": 6265032,
      "byteStride": 8,
      "name": "floatBufferViews",
      "target": 34962
    },
    {
      "buffer": 0,
      "byteLength": 7549080,
      "byteOffset": 11297752,
      "byteStride": 12,
      "name": "floatBufferViews",
      "target": 34962
    },
    {
      "buffer": 0,
      "byteLength": 10065440,
      "byteOffset": 18846832,
      "byteStride": 16,
      "name": "floatBufferViews",
      "target": 34962
    }
  ],
  "buffers": [
    {
      "byteLength": 28912272,
      "uri": "scene.bin"
    }
  ],
  "images": [
    {
      "uri": "textures/Muxio_baseColor.jpeg"
    },
    {
      "uri": "textures/Muxio_metallicRoughness.png"
    },
    {
      "uri": "textures/Muxio_normal.png"
    }
  ],
  "materials": [
    {
      "doubleSided": true,
      "emissiveFactor": [
        0.8556701401062196,
        0.8556701401062196,
        0.8556701401062196
      ],
      "emissiveTexture": {
        "index": 0
      },
      "name": "Muxio",
      "normalTexture": {
        "index": 2
      },
      "occlusionTexture": {
        "index": 1
      },
      "pbrMetallicRoughness": {
        "baseColorTexture": {
          "index": 0
        },
        "metallicFactor": 0.0,
        "metallicRoughnessTexture": {
          "index": 1
        },
        "roughnessFactor": 0.516130992179209
      }
    }
  ],
  "meshes": [
    {
      "name": "Muxio_Muxio_0",
      "primitives": [
        {
          "attributes": {
            "COLOR_0": 3,
            "NORMAL": 1,
            "POSITION": 0,
            "TANGENT": 2,
            "TEXCOORD_0": 4,
            "TEXCOORD_1": 5
          },
          "indices": 6,
          "material": 0,
          "mode": 4
        }
      ]
    },
    {
      "name": "Muxio_Muxio_0",
      "primitives": [
        {
          "attributes": {
            "COLOR_0": 10,
            "NORMAL": 8,
            "POSITION": 7,
            "TANGENT": 9,
            "TEXCOORD_0": 11,
            "TEXCOORD_1": 12
          },
          "indices": 13,
          "material": 0,
          "mode": 4
        }
      ]
    },
    {
      "name": "Muxio_Muxio_0",
      "primitives": [
        {
          "attributes": {
            "COLOR_0": 17,
            "NORMAL": 15,
            "POSITION": 14,
            "TANGENT": 16,
            "TEXCOORD_0": 18,
            "TEXCOORD_1": 19
          },
          "indices": 20,
          "material": 0,
          "mode": 4
        }
      ]
    },
    {
      "name": "Muxio_Muxio_0",
      "primitives": [
        {
          "attributes": {
            "COLOR_0": 24,
            "NORMAL": 22,
            "POSITION": 21,
            "TANGENT": 23,
            "TEXCOORD_0": 25,
            "TEXCOORD_1": 26
          },
          "indices": 27,
          "material": 0,
          "mode": 4
        }
      ]
    },
    {
      "name": "Muxio_Muxio_0",
      "primitives": [
        {
          "attributes": {
            "COLOR_0": 31,
            "NORMAL": 29,
            "POSITION": 28,
            "TANGENT": 30,
            "TEXCOORD_0": 32,
            "TEXCOORD_1": 33
          },
          "indices": 34,
          "material": 0,
          "mode": 4
        }
      ]
    }
  ],
  "nodes": [
    {
      "children": [
        1
      ],
      "matrix": [
        0.9385213255882263,
        0.0,
        0.0,
        0.0,
        0.0,
        2.083935969539544e-16,
        -0.9385213255882263,
        0.0,
        0.0,
        0.9385213255882263,
        2.083935969539544e-16,
        0.0,
        0.0,
        0.0,
        0.0,
        1.0
      ],
      "name": "Sketchfab_model"
    },
    {
      "children": [
        2
      ],
      "matrix": [
        0.009999999776482582,
        0.0,
        0.0,
        0.0,
        0.0,
        0.0,
        0.009999999776482582,
        0.0,
        0.0,
        -0.009999999776482582,
        0.0,
        0.0,
        0.0,
        0.0,
        0.0,
        1.0
      ],
      "name": "475e486c630b4391886453869367dc8d.fbx"
    },
    {
      "children": [
        3
      ],
      "name": "RootNode"
    },
    {
      "children": [
        4,
        5,
        6,
        7,
        8
      ],
      "matrix": [
        0.7391328477334085,
        -0.008667793555823648,
        0.07131884070067454,
        0.0,
        0.0713934222179599,
        0.006214363600033142,
        -0.7391505264909585,
        0.0,
        0.008030530701072543,
        0.7425397648328561,
        0.0070185151321729925,
        0.0,
        164.8157958984375,
        -133.64674377441406,
        174.35345458984375,
        1.0
      ],
      "name": "Muxio"
    },
    {
      "mesh": 0,
      "name": "Muxio_Muxio_0"
    },
    {
      "mesh": 1,
      "name": "Muxio_Muxio_0"
    },
    {
      "mesh": 2,
      "name": "Muxio_Muxio_0"
    },
    {
      "mesh": 3,
      "name": "Muxio_Muxio_0"
    },
    {
      "mesh": 4,
      "name": "Muxio_Muxio_0"
    }
  ],
  "samplers": [
    {
      "magFilter": 9729,
      "minFilter": 9987,
      "wrapS": 10497,
      "wrapT": 10497
    }
  ],
  "scene": 0,
  "scenes": [
    {
      "name": "Sketchfab_Scene",
      "nodes": [
        0
      ]
    }
  ],
  "textures": [
    {
      "sampler": 0,
      "source": 0
    },
    {
      "sampler": 0,
      "source": 1
    },
    {
      "sampler": 0,
      "source": 2
    }
  ]
}
